# xmcd
#
# Track frame offsets: 
#        150
#        22863
#        45464
#        81507
#        105027
#        125125
#        152933
#        172391
#        198624
#        218508
#        244241
#        265551
#        282258
#
# Disc length: 4181 seconds
#
# Revision: 0
# Processed by: cddbd v1.5.2PL0 Copyright (c) Steve Scherf et al.
# Submitted via: ExactAudioCopy v1.1
#
DISCID=b310530d
DTITLE=藤島晃一 - 立ち止まれば
DYEAR=2016
DGENRE=Blues
TTITLE0=冬のカマキリ
TTITLE1=喰
TTITLE2=DON DON
TTITLE3=薬屋さんの詩
TTITLE4=目を閉じて・・・
TTITLE5=CLARKS DALE
TTITLE6=立ち止まれば
TTITLE7=何から何まで
TTITLE8=その少年
TTITLE9=しがらみ
TTITLE10=クルクル:コロコロ
TTITLE11=なの花畑
TTITLE12=流れ草
EXTD=
EXTT0=
EXTT1=
EXTT2=
EXTT3=
EXTT4=
EXTT5=
EXTT6=
EXTT7=
EXTT8=
EXTT9=
EXTT10=
EXTT11=
EXTT12=
PLAYORDER=
